<?xml version="1.0" encoding="utf-8"?>
<!-- Generator: Adobe Illustrator 25.4.1, SVG Export Plug-In . SVG Version: 6.00 Build 0)  -->
<svg version="1.1" id="Outline" xmlns="http://www.w3.org/2000/svg" xmlns:xlink="http://www.w3.org/1999/xlink" x="0px" y="0px"
	 viewBox="0 0 512 512" enable-background="new 0 0 512 512" xml:space="preserve">
<path d="M137.115,182.412c-1.977,3.953-0.375,8.758,3.578,10.734c6.586,3.293,13.133,4.391,18.934,4.391
	c11.246,0,19.695-4.129,20.223-4.391c3.953-1.977,5.555-6.781,3.578-10.734c-1.973-3.949-6.766-5.551-10.734-3.578
	c-0.125,0.062-12.758,6.043-24.844,0C143.892,176.861,139.092,178.463,137.115,182.412z"/>
<path d="M124.709,138.564c0.07-0.055,7.648-4.98,15.125,0c1.363,0.91,2.906,1.344,4.43,1.344c2.586,0,5.121-1.25,6.664-3.562
	c2.449-3.676,1.457-8.645-2.219-11.094c-12.984-8.648-26.773-4.07-32.875,0c-3.676,2.449-4.668,7.418-2.219,11.094
	C116.06,140.022,121.025,141.018,124.709,138.564z"/>
<path d="M180.709,138.564c0.074-0.055,7.656-4.98,15.125,0c1.363,0.91,2.906,1.344,4.43,1.344c2.586,0,5.121-1.25,6.664-3.562
	c2.449-3.676,1.457-8.645-2.219-11.094c-12.98-8.648-26.773-4.07-32.875,0c-3.676,2.449-4.668,7.418-2.219,11.094
	S177.029,141.018,180.709,138.564z"/>
<path d="M504.271,264.389h-32v-33.136c13.762-3.578,24-15.998,24-30.864v-40c0-4.418-3.582-8-8-8h-48c-4.418,0-8,3.582-8,8v40
	c0,14.866,10.238,27.286,24,30.864v33.136h-32v-37.84c0-8.93-0.645-18.102-1.918-27.281c-2.035-14.398-5.602-28.426-10.59-41.68
	c-7.625-20.41-11.492-41.727-11.492-63.359v-29.84c0-4.418-3.582-8-8-8h-24c-4.418,0-8,3.582-8,8v29.84
	c0,21.633-3.867,42.949-11.488,63.34c-4.992,13.273-8.559,27.301-10.598,41.719c-1.27,9.16-1.914,18.332-1.914,27.262v37.84h-8
	c-4.418,0-8,3.582-8,8v24c0,4.418,3.582,8,8,8h41.007l-17.125,7.336c-3.891,1.621-6.926,4.656-8.562,8.578l-23.32,56.055v-39.969
	c0-28.055-14.32-53.574-38.316-68.27c-0.105-0.064-0.217-0.112-0.322-0.176c-0.039-0.021-0.075-0.042-0.114-0.062
	c-8.939-5.378-18.704-8.957-29.228-10.622c-0.035-0.005-0.065-0.005-0.1-0.01c-0.005,0-0.01-0.001-0.015-0.002
	c-4.345-0.575-8.243-0.859-11.904-0.859h-24v-8c0-2.656-1.316-5.137-3.516-6.625c-2.203-1.492-4.988-1.793-7.457-0.805l-0.797,0.319
	l-3.092-18.25c17.01-10.254,28.096-27.485,30.343-47.201c1.458,0.339,2.959,0.561,4.519,0.561c11.027,0,20-8.973,20-20V90.947
	c0-49.934-39.477-90.559-88-90.559h-16c-48.523,0-88,40.625-88,90.559v65.441c0,11.027,8.973,20,20,20
	c1.567,0,3.074-0.225,4.539-0.567c2.327,19.714,13.751,37.3,30.752,47.397l-3.267,18.162l-1.043-0.418
	c-2.469-0.988-5.266-0.695-7.461,0.797c-2.199,1.488-3.52,3.973-3.52,6.629v8h-24c-3.596,0-7.436,0.282-11.864,0.862
	c-0.029,0.003-0.056,0.005-0.084,0.009c-0.093,0.012-0.169,0.015-0.262,0.028c-10.336,1.638-20.1,5.216-29.055,10.6
	c-0.029,0.016-0.056,0.03-0.084,0.046c-0.114,0.069-0.235,0.121-0.349,0.19c-23.98,14.691-38.301,40.211-38.301,68.266v168
	c0,4.418,3.582,8,8,8h304.48c16.879,0,32.027-10.687,37.699-26.602l36.477-102.551l11.676-32.781l61.773-24.723
	c9.516-3.826,16.311-11.805,18.8-21.344h25.095c4.418,0,8-3.582,8-8v-24C512.271,267.971,508.689,264.389,504.271,264.389z
	 M448.271,200.389v-32h32v32c0,8.824-7.176,16-16,16S448.271,209.213,448.271,200.389z M363.763,163.189
	c8.301-22.207,12.508-45.41,12.508-68.961v-21.84h8v21.84c0,23.551,4.207,46.754,12.512,68.98c3.526,9.359,6.256,19.147,8.187,29.18
	h-49.396C357.505,182.35,360.235,172.562,363.763,163.189z M352.271,226.549c0-5.958,0.421-12.051,1.042-18.16h53.916
	c0.621,6.113,1.042,12.205,1.042,18.16v5.84h-40c-4.418,0-8,3.582-8,8s3.582,8,8,8h40v16h-56V226.549z M375.008,369.103
	l-28.084-15.123l6.376-15.313l27.306,14.715L375.008,369.103z M192.271,440.389h-8c0-8.432-6.572-15.284-14.854-15.884
	l85.88-150.306c4.883,1.193,9.571,2.955,14.037,5.241l-20.348,216.95H219.82c2.756-4.726,4.452-10.146,4.452-16v-8
	C224.271,454.744,209.916,440.389,192.271,440.389z M65.241,274.192l85.817,150.197H64.836L51.209,279.435
	C55.701,277.136,60.399,275.375,65.241,274.192z M168.271,440.389v56h-120v-56H168.271z M200.271,260.205v14.055l-14.043-8.426
	L200.271,260.205z M240.271,156.389c0,2.207-1.793,4-4,4s-4-1.793-4-4v-24c0-2.207,1.793-4,4-4s4,1.793,4,4V156.389z
	 M152.271,16.389h16c39.699,0,72,33.445,72,74.559v21.846c-1.293-0.264-2.63-0.405-4-0.405s-2.707,0.141-4,0.405v-8.405
	c0-2.32-1.008-4.523-2.758-6.043c-1.754-1.52-4.066-2.211-6.375-1.875c-44.734,6.398-72.539-26.273-78.867-34.656V40.389
	c0-4.418-3.582-8-8-8s-8,3.582-8,8v22.482c-7.434,19.978-35.302,34.223-35.586,34.365c-2.699,1.359-4.414,4.129-4.414,7.152v8.405
	c-1.293-0.264-2.63-0.405-4-0.405s-2.707,0.141-4,0.405V90.947C80.271,49.834,112.572,16.389,152.271,16.389z M84.271,160.389
	c-2.207,0-4-1.793-4-4v-24c0-2.207,1.793-4,4-4s4,1.793,4,4v24C88.271,158.596,86.478,160.389,84.271,160.389z M104.271,168.389
	v-59.273c7.771-4.532,23.762-15.219,33.544-30.206c12.598,13.704,39.394,36.226,78.456,34.276v55.203
	c0,18.641-10.402,35.219-27.133,43.262c-6.57,3.145-13.59,4.738-20.867,4.738h-16c-7.168,0-14.031-1.539-20.457-4.609
	C115.084,203.975,104.271,186.943,104.271,168.389z M134.635,229.819c5.686,1.645,11.569,2.569,17.636,2.569h16
	c6.182,0,12.203-0.961,18.044-2.676l2.991,17.652l-11.257,4.509c-2.753-2.154-6.114-3.485-9.778-3.485h-16
	c-3.627,0-6.965,1.309-9.734,3.504l-11.074-4.436L134.635,229.819z M152.271,272.389v-8h16v8H152.271z M120.271,260.221
	l14.039,5.617l-14.039,8.422V260.221z M108.33,295.35c1.223,0.695,2.582,1.039,3.941,1.039c1.426,0,2.852-0.379,4.117-1.141
	l22.811-13.686c2.898,4.116,7.665,6.827,13.072,6.827v48c0,4.418,3.582,8,8,8s8-3.582,8-8v-48c5.407,0,10.174-2.71,13.072-6.827
	l22.811,13.686c1.266,0.762,2.691,1.141,4.117,1.141c1.359,0,2.719-0.344,3.941-1.039c2.508-1.418,4.059-4.078,4.059-6.961v-16
	h21.635l-69.635,121.874v-33.874c0-4.418-3.582-8-8-8s-8,3.582-8,8v33.874L82.636,272.389h21.635v16
	C104.271,291.272,105.822,293.932,108.33,295.35z M16.271,336.389c0-17.813,7.309-34.271,19.877-46.211l12.617,134.211h-0.494
	c-8.824,0-16,7.176-16,16v56h-16V336.389z M184.271,496.389v-40h8c8.824,0,16,7.176,16,16v8c0,8.824-7.176,16-16,16H184.271z
	 M335.377,480.42c-3.406,9.551-12.496,15.969-22.625,15.969h-47.695l19.34-206.203c12.57,11.941,19.875,28.395,19.875,46.203v80
	c0,3.812,2.691,7.098,6.434,7.844c0.523,0.105,1.051,0.156,1.57,0.156c3.176,0,6.121-1.898,7.383-4.926l21.085-50.64l28.836,15.527
	L335.377,480.42z M454.42,310.885l-61.805,24.734c-1.936,0.788-3.617,1.962-5.06,3.33l-25.829-13.919l48.188-20.641h52.032
	C460.226,307.236,457.68,309.573,454.42,310.885z M496.271,288.389h-160v-8h160V288.389z"/>
</svg>
