<?xml version="1.0" encoding="utf-8"?>
<!-- Generator: Adobe Illustrator 23.0.5, SVG Export Plug-In . SVG Version: 6.00 Build 0)  -->
<svg version="1.1" id="Layer_1" xmlns="http://www.w3.org/2000/svg" xmlns:xlink="http://www.w3.org/1999/xlink" x="0px" y="0px"
	 viewBox="0 0 3873 3873" style="enable-background:new 0 0 3873 3873;" xml:space="preserve">
<style type="text/css">
	.st0{fill-rule:evenodd;clip-rule:evenodd;}
	.st1{fill:none;}
</style>
<g id="Layer_x0020_1">
	<g id="_307383704">
		<path id="_307384688" class="st0" d="M2868.8,1765.5H1004.3c-13.6,0-26.9-1.3-39.8-3.9l278.4,1740.2
			c8,49.6,39.3,107.5,101.6,107.5h1183.9c62.3,0,93.7-57.9,101.6-107.5l278.5-1740.2C2895.7,1764.2,2882.4,1765.5,2868.8,1765.5
			L2868.8,1765.5z"/>
		<path id="_307384472" class="st0" d="M2868.8,1445.5H1004.3c-37.5,0-71.1,17.3-93.1,44.3c-0.9,1.4-2,2.8-3.2,4
			c-15,20-23.9,44.9-23.9,71.9c0,27,8.9,51.9,24,72c1.1,1.2,2,2.5,3,3.9c6.8,8.3,14.6,15.7,23.3,21.9c1.4,0.9,2.8,1.7,4,2.8
			c18.9,12.4,41.6,19.7,65.9,19.7h1864.5c24.3,0,46.9-7.2,65.8-19.6c1.3-1,2.8-2,4.2-2.8c8.7-6.2,16.5-13.6,23.3-21.9
			c0.9-1.3,1.9-2.6,3-3.8c15.1-20.1,24-45,24-72c0-26.9-8.9-51.8-23.9-71.8c-1.1-1.3-2.2-2.6-3.2-4
			C2939.9,1462.8,2906.3,1445.5,2868.8,1445.5L2868.8,1445.5z"/>
		<path id="_307385168" class="st0" d="M2717.8,716.3c-205.3-217.8-481.3-343.8-781.2-343.8c-300.1,0-575.9,126-781.3,343.8
			c-180.4,191.2-290.7,439.4-319.5,700.1H717.6c29.5-287.6,150.9-560.6,349.5-771.3c228.4-242.2,536-381.4,869.5-381.4
			s641.1,139.2,869.5,381.4c198.6,210.6,320,483.7,349.5,771.3h-118.2C3008.5,1155.6,2898,907.5,2717.8,716.3L2717.8,716.3z"/>
		<g>
			<path id="_307384616" class="st0" d="M3059.9,1507.1c5.7,18.5,8.7,38.1,8.7,58.5c0,20.4-3.1,40-8.7,58.6h135.8v-117.2h-24.4
				H3059.9L3059.9,1507.1z"/>
			<path id="_307384016" class="st0" d="M677.3,1507.1v117.2h135.9c-5.7-18.5-8.7-38.2-8.7-58.6c0-20.3,3.1-40,8.7-58.5h-80.8H677.3
				L677.3,1507.1z"/>
		</g>
	</g>
</g>
<rect class="st1" width="3873" height="3873"/>
</svg>
