<?xml version="1.0" encoding="UTF-8"?>
<svg id="Layer_1" xmlns="http://www.w3.org/2000/svg" version="1.1" viewBox="0 0 300 200">
  <!-- Generator: Adobe Illustrator 30.2.1, SVG Export Plug-In . SVG Version: 2.1.1 Build 1)  -->
  <defs>
    <style>
      .st0 {
        fill: #48d1cc;
      }

      .st1, .st2 {
        fill: #f5427b;
      }

      .st3 {
        fill: #1b8aad;
      }

      .st4 {
        fill: #3dc8ff;
      }

      .st5 {
        fill: none;
        stroke: #c8d6df;
        stroke-linecap: round;
        stroke-width: 1.5px;
      }

      .st6 {
        fill: #2b9eb3;
        font-family: Helvetica-Light, Helvetica;
      }

      .st6, .st7, .st8, .st2, .st9 {
        isolation: isolate;
      }

      .st6, .st2 {
        font-weight: 300;
      }

      .st6, .st9 {
        font-size: 36.31px;
        letter-spacing: -.02em;
      }

      .st10 {
        fill: #0f4c81;
      }

      .st11 {
        fill: #ff6b35;
      }

      .st8 {
        fill: #a0b4c4;
        font-family: Helvetica, Helvetica;
        font-size: 15.36px;
      }

      .st12 {
        fill: #ff8a4c;
      }

      .st2 {
        font-family: Helvetica-LightOblique, Helvetica;
        font-size: 7px;
        font-style: oblique;
      }

      .st13 {
        fill: #ffe44d;
      }

      .st14 {
        fill: #e23d6e;
      }

      .st15 {
        fill: #c8d6df;
      }

      .st16 {
        fill: #a855f7;
      }

      .st9 {
        fill: #1e3a4f;
        font-family: Helvetica-Bold, Helvetica;
        font-weight: 700;
      }

      .st17 {
        fill: #34d399;
      }
    </style>
  </defs>
  <g class="st7">
    <text class="st9" transform="translate(0 32.84)"><tspan x="0" y="0">Recolor</tspan></text>
  </g>
  <rect class="st11" x="138.02" y="2.23" width="33.51" height="33.51" rx="5" ry="5"/>
  <rect class="st1" x="16.53" y="46.91" width="33.51" height="33.51" rx="5" ry="5"/>
  <rect class="st14" x="57.03" y="46.91" width="33.51" height="33.51" rx="5" ry="5"/>
  <rect class="st13" x="97.52" y="46.91" width="33.51" height="33.51" rx="5" ry="5"/>
  <rect class="st4" x="138.02" y="46.91" width="33.51" height="33.51" rx="5" ry="5"/>
  <rect class="st12" x="57.03" y="91.6" width="33.51" height="33.51" rx="5" ry="5"/>
  <rect class="st16" x="97.52" y="91.6" width="33.51" height="33.51" rx="5" ry="5"/>
  <rect class="st17" x="138.02" y="91.6" width="33.51" height="33.51" rx="5" ry="5"/>
  <line class="st5" x1="178.51" y1="18.98" x2="222.89" y2="18.98"/>
  <line class="st5" x1="178.51" y1="63.67" x2="222.89" y2="63.67"/>
  <polygon class="st15" points="211.76 55.43 226.17 63.84 211.76 72.25 211.76 55.43"/>
  <line class="st5" x1="178.51" y1="108.35" x2="222.89" y2="108.35"/>
  <rect class="st10" x="228.78" y="2.23" width="33.51" height="33.51" rx="5" ry="5"/>
  <rect class="st3" x="228.78" y="46.91" width="33.51" height="33.51" rx="5" ry="5"/>
  <rect class="st0" x="228.78" y="91.6" width="33.51" height="33.51" rx="5" ry="5"/>
  <g class="st7">
    <text class="st6" transform="translate(60.26 158.62)"><tspan x="0" y="0">Preview Tool</tspan></text>
  </g>
  <g class="st7">
    <text class="st2" transform="translate(124.04 190.59)"><tspan x="0" y="0">(Not for photographs)</tspan></text>
  </g>
  <g class="st7">
    <text class="st8" transform="translate(23.51 179.47)"><tspan x="0" y="0">Ineptly vibe-coded by David Landerman</tspan></text>
  </g>
  <polygon class="st15" points="211.76 10.58 226.17 18.98 211.76 27.39 211.76 10.58"/>
  <polygon class="st15" points="211.76 99.95 226.17 108.35 211.76 116.76 211.76 99.95"/>
</svg>